<mxfile host="app.diagrams.net" agent="Mozilla/5.0 (Windows NT 10.0; Win64; x64) AppleWebKit/537.36 (KHTML, like Gecko) Chrome/131.0.0.0 Safari/537.36 OPR/116.0.0.0" version="26.0.16">
  <diagram name="Página-1" id="EUhfG-6pqv0f8PUwKJLZ">
    <mxGraphModel grid="1" page="1" gridSize="10" guides="1" tooltips="1" connect="1" arrows="1" fold="1" pageScale="1" pageWidth="827" pageHeight="1169" math="0" shadow="0">
      <root>
        <mxCell id="0" />
        <mxCell id="1" parent="0" />
        <mxCell id="ueDurYDFPwys_lPn447s-1" value="" style="rounded=0;whiteSpace=wrap;html=1;flipH=0;" vertex="1" parent="1">
          <mxGeometry x="110" width="1090" height="470" as="geometry" />
        </mxCell>
        <mxCell id="ueDurYDFPwys_lPn447s-2" value="Admin" style="shape=umlActor;verticalLabelPosition=bottom;verticalAlign=top;html=1;outlineConnect=0;" vertex="1" parent="1">
          <mxGeometry x="170" y="50" width="30" height="60" as="geometry" />
        </mxCell>
        <mxCell id="ueDurYDFPwys_lPn447s-3" style="edgeStyle=orthogonalEdgeStyle;rounded=0;orthogonalLoop=1;jettySize=auto;html=1;exitX=0.5;exitY=0;exitDx=0;exitDy=0;endArrow=none;startFill=0;dashed=1;dashPattern=8 8;" edge="1" parent="1" source="ueDurYDFPwys_lPn447s-6">
          <mxGeometry relative="1" as="geometry">
            <mxPoint x="185" y="129" as="targetPoint" />
          </mxGeometry>
        </mxCell>
        <mxCell id="ueDurYDFPwys_lPn447s-41" value="Clica em&amp;nbsp;&lt;div&gt;Editar Tutorial&lt;/div&gt;" style="edgeStyle=orthogonalEdgeStyle;rounded=0;orthogonalLoop=1;jettySize=auto;html=1;exitX=1;exitY=0;exitDx=0;exitDy=0;entryX=0;entryY=0;entryDx=0;entryDy=0;" edge="1" parent="1" source="ueDurYDFPwys_lPn447s-6" target="ueDurYDFPwys_lPn447s-12">
          <mxGeometry x="0.0087" relative="1" as="geometry">
            <Array as="points">
              <mxPoint x="250" y="160" />
              <mxPoint x="250" y="160" />
            </Array>
            <mxPoint as="offset" />
          </mxGeometry>
        </mxCell>
        <mxCell id="ueDurYDFPwys_lPn447s-53" value="Clica no ícone &#39;x&#39; do vídeo" style="edgeStyle=orthogonalEdgeStyle;rounded=0;orthogonalLoop=1;jettySize=auto;html=1;exitX=1;exitY=0.75;exitDx=0;exitDy=0;entryX=0;entryY=0;entryDx=0;entryDy=0;" edge="1" parent="1" source="ueDurYDFPwys_lPn447s-6" target="ueDurYDFPwys_lPn447s-52">
          <mxGeometry relative="1" as="geometry">
            <Array as="points">
              <mxPoint x="322" y="243" />
              <mxPoint x="322" y="240" />
            </Array>
          </mxGeometry>
        </mxCell>
        <mxCell id="CSFp8VOE0TgeVbHITCIb-28" style="edgeStyle=orthogonalEdgeStyle;rounded=0;orthogonalLoop=1;jettySize=auto;html=1;exitX=1;exitY=0.75;exitDx=0;exitDy=0;" edge="1" parent="1" source="ueDurYDFPwys_lPn447s-6" target="CSFp8VOE0TgeVbHITCIb-12">
          <mxGeometry relative="1" as="geometry" />
        </mxCell>
        <mxCell id="CSFp8VOE0TgeVbHITCIb-29" value="Clica no ícone de fazer upload" style="edgeLabel;html=1;align=center;verticalAlign=middle;resizable=0;points=[];" connectable="0" vertex="1" parent="CSFp8VOE0TgeVbHITCIb-28">
          <mxGeometry x="-0.0058" y="1" relative="1" as="geometry">
            <mxPoint x="1" as="offset" />
          </mxGeometry>
        </mxCell>
        <mxCell id="ueDurYDFPwys_lPn447s-6" value="" style="rounded=0;whiteSpace=wrap;html=1;" vertex="1" parent="1">
          <mxGeometry x="180" y="160" width="10" height="250" as="geometry" />
        </mxCell>
        <mxCell id="ueDurYDFPwys_lPn447s-7" value="Sd Editar Tutorial" style="shape=card;whiteSpace=wrap;html=1;rotation=0;size=20;direction=south;flipH=0;flipV=1;" vertex="1" parent="1">
          <mxGeometry x="110" width="240" height="30" as="geometry" />
        </mxCell>
        <mxCell id="ueDurYDFPwys_lPn447s-8" value="" style="shape=umlBoundary;whiteSpace=wrap;html=1;" vertex="1" parent="1">
          <mxGeometry x="270" y="50" width="80" height="60" as="geometry" />
        </mxCell>
        <mxCell id="ueDurYDFPwys_lPn447s-9" value="Adm Pag inicial" style="text;html=1;align=center;verticalAlign=middle;whiteSpace=wrap;rounded=0;" vertex="1" parent="1">
          <mxGeometry x="260" y="110" width="100" height="30" as="geometry" />
        </mxCell>
        <mxCell id="ueDurYDFPwys_lPn447s-10" style="edgeStyle=orthogonalEdgeStyle;rounded=0;orthogonalLoop=1;jettySize=auto;html=1;exitX=0.5;exitY=0;exitDx=0;exitDy=0;entryX=0.5;entryY=1;entryDx=0;entryDy=0;endArrow=none;startFill=0;dashed=1;dashPattern=8 8;" edge="1" parent="1" source="ueDurYDFPwys_lPn447s-12" target="ueDurYDFPwys_lPn447s-9">
          <mxGeometry relative="1" as="geometry" />
        </mxCell>
        <mxCell id="CSFp8VOE0TgeVbHITCIb-11" value="&lt;span style=&quot;color: rgb(0, 0, 0); font-family: Helvetica; font-size: 11px; font-style: normal; font-variant-ligatures: normal; font-variant-caps: normal; font-weight: 400; letter-spacing: normal; orphans: 2; text-align: center; text-indent: 0px; text-transform: none; widows: 2; word-spacing: 0px; -webkit-text-stroke-width: 0px; white-space: nowrap; background-color: rgb(255, 255, 255); text-decoration-thickness: initial; text-decoration-style: initial; text-decoration-color: initial; float: none; display: inline !important;&quot;&gt;Recebe o acionamento do botão&lt;/span&gt;" style="edgeStyle=orthogonalEdgeStyle;rounded=0;orthogonalLoop=1;jettySize=auto;html=1;exitX=1;exitY=0;exitDx=0;exitDy=0;entryX=0;entryY=0;entryDx=0;entryDy=0;" edge="1" parent="1" source="ueDurYDFPwys_lPn447s-12" target="ueDurYDFPwys_lPn447s-21">
          <mxGeometry relative="1" as="geometry">
            <Array as="points">
              <mxPoint x="773" y="160" />
            </Array>
          </mxGeometry>
        </mxCell>
        <mxCell id="ueDurYDFPwys_lPn447s-12" value="" style="rounded=0;whiteSpace=wrap;html=1;" vertex="1" parent="1">
          <mxGeometry x="305" y="160" width="10" height="11" as="geometry" />
        </mxCell>
        <mxCell id="ueDurYDFPwys_lPn447s-13" value="" style="ellipse;shape=umlControl;whiteSpace=wrap;html=1;" vertex="1" parent="1">
          <mxGeometry x="887.25" y="50" width="61" height="60" as="geometry" />
        </mxCell>
        <mxCell id="ueDurYDFPwys_lPn447s-14" value="Controlador_sistema" style="text;html=1;align=center;verticalAlign=middle;whiteSpace=wrap;rounded=0;" vertex="1" parent="1">
          <mxGeometry x="860" y="110" width="115.5" height="30" as="geometry" />
        </mxCell>
        <mxCell id="ueDurYDFPwys_lPn447s-15" style="edgeStyle=orthogonalEdgeStyle;rounded=0;orthogonalLoop=1;jettySize=auto;html=1;exitX=0.5;exitY=0;exitDx=0;exitDy=0;entryX=0.5;entryY=1;entryDx=0;entryDy=0;endArrow=none;startFill=0;dashed=1;dashPattern=8 8;" edge="1" parent="1" source="ueDurYDFPwys_lPn447s-21">
          <mxGeometry relative="1" as="geometry">
            <mxPoint x="917.75" y="125.5" as="targetPoint" />
          </mxGeometry>
        </mxCell>
        <mxCell id="ueDurYDFPwys_lPn447s-20" style="edgeStyle=orthogonalEdgeStyle;rounded=0;orthogonalLoop=1;jettySize=auto;html=1;exitX=0.5;exitY=1;exitDx=0;exitDy=0;entryX=0.5;entryY=0;entryDx=0;entryDy=0;endArrow=none;endFill=0;dashed=1;dashPattern=8 8;" edge="1" parent="1" source="ueDurYDFPwys_lPn447s-21" target="ueDurYDFPwys_lPn447s-39">
          <mxGeometry relative="1" as="geometry" />
        </mxCell>
        <mxCell id="ueDurYDFPwys_lPn447s-44" value="Acessa o banco a procura&lt;span style=&quot;background-color: light-dark(#ffffff, var(--ge-dark-color, #121212)); color: light-dark(rgb(0, 0, 0), rgb(255, 255, 255));&quot;&gt;&amp;nbsp;&lt;/span&gt;&lt;div&gt;&lt;span style=&quot;background-color: light-dark(#ffffff, var(--ge-dark-color, #121212)); color: light-dark(rgb(0, 0, 0), rgb(255, 255, 255));&quot;&gt;do tutorial selecionado&lt;/span&gt;&lt;/div&gt;" style="edgeStyle=orthogonalEdgeStyle;rounded=0;orthogonalLoop=1;jettySize=auto;html=1;exitX=1;exitY=0;exitDx=0;exitDy=0;entryX=0;entryY=0;entryDx=0;entryDy=0;" edge="1" parent="1" source="ueDurYDFPwys_lPn447s-21" target="ueDurYDFPwys_lPn447s-27">
          <mxGeometry relative="1" as="geometry">
            <Array as="points">
              <mxPoint x="990" y="155" />
              <mxPoint x="990" y="155" />
            </Array>
          </mxGeometry>
        </mxCell>
        <mxCell id="ueDurYDFPwys_lPn447s-46" style="edgeStyle=orthogonalEdgeStyle;rounded=0;orthogonalLoop=1;jettySize=auto;html=1;exitX=0;exitY=1;exitDx=0;exitDy=0;entryX=1;entryY=1;entryDx=0;entryDy=0;" edge="1" parent="1" source="ueDurYDFPwys_lPn447s-21" target="ueDurYDFPwys_lPn447s-33">
          <mxGeometry relative="1" as="geometry">
            <Array as="points">
              <mxPoint x="540" y="210" />
              <mxPoint x="540" y="210" />
            </Array>
          </mxGeometry>
        </mxCell>
        <mxCell id="ueDurYDFPwys_lPn447s-47" value="Redireciona para a&amp;nbsp;&lt;div&gt;Adm pag editar&lt;/div&gt;" style="edgeLabel;html=1;align=center;verticalAlign=middle;resizable=0;points=[];" connectable="0" vertex="1" parent="ueDurYDFPwys_lPn447s-46">
          <mxGeometry x="-0.0628" y="-1" relative="1" as="geometry">
            <mxPoint as="offset" />
          </mxGeometry>
        </mxCell>
        <mxCell id="ueDurYDFPwys_lPn447s-21" value="" style="rounded=0;whiteSpace=wrap;html=1;" vertex="1" parent="1">
          <mxGeometry x="912.75" y="155" width="10" height="50" as="geometry" />
        </mxCell>
        <mxCell id="ueDurYDFPwys_lPn447s-22" value="&lt;div&gt;&lt;br&gt;&lt;/div&gt;&lt;div&gt;&lt;br&gt;&lt;/div&gt;" style="ellipse;shape=umlEntity;whiteSpace=wrap;html=1;" vertex="1" parent="1">
          <mxGeometry x="1070" y="52.5" width="60" height="60" as="geometry" />
        </mxCell>
        <mxCell id="ueDurYDFPwys_lPn447s-24" style="edgeStyle=orthogonalEdgeStyle;rounded=0;orthogonalLoop=1;jettySize=auto;html=1;exitX=0.5;exitY=0;exitDx=0;exitDy=0;entryX=0.5;entryY=1;entryDx=0;entryDy=0;endArrow=none;startFill=0;dashed=1;dashPattern=8 8;" edge="1" parent="1" source="ueDurYDFPwys_lPn447s-23">
          <mxGeometry relative="1" as="geometry">
            <mxPoint x="1100" y="125.5" as="targetPoint" />
          </mxGeometry>
        </mxCell>
        <mxCell id="ueDurYDFPwys_lPn447s-45" value="Fornece o tutorial e&amp;nbsp;&lt;div&gt;as informações&lt;/div&gt;" style="edgeStyle=orthogonalEdgeStyle;rounded=0;orthogonalLoop=1;jettySize=auto;html=1;exitX=0;exitY=1;exitDx=0;exitDy=0;entryX=1;entryY=0.75;entryDx=0;entryDy=0;" edge="1" parent="1" source="ueDurYDFPwys_lPn447s-27" target="ueDurYDFPwys_lPn447s-21">
          <mxGeometry relative="1" as="geometry">
            <Array as="points">
              <mxPoint x="991" y="195" />
              <mxPoint x="991" y="192" />
            </Array>
          </mxGeometry>
        </mxCell>
        <mxCell id="ueDurYDFPwys_lPn447s-59" style="edgeStyle=orthogonalEdgeStyle;rounded=0;orthogonalLoop=1;jettySize=auto;html=1;endArrow=none;startFill=0;dashed=1;dashPattern=12 12;" edge="1" parent="1" source="ueDurYDFPwys_lPn447s-27" target="ueDurYDFPwys_lPn447s-58">
          <mxGeometry relative="1" as="geometry" />
        </mxCell>
        <mxCell id="ueDurYDFPwys_lPn447s-27" value="" style="rounded=0;whiteSpace=wrap;html=1;" vertex="1" parent="1">
          <mxGeometry x="1095" y="155" width="10" height="40" as="geometry" />
        </mxCell>
        <mxCell id="ueDurYDFPwys_lPn447s-28" value="" style="shape=umlBoundary;whiteSpace=wrap;html=1;" vertex="1" parent="1">
          <mxGeometry x="410" y="50" width="80" height="60" as="geometry" />
        </mxCell>
        <mxCell id="ueDurYDFPwys_lPn447s-29" value="Adm Pag editar" style="text;html=1;align=center;verticalAlign=middle;whiteSpace=wrap;rounded=0;" vertex="1" parent="1">
          <mxGeometry x="400" y="110" width="100" height="30" as="geometry" />
        </mxCell>
        <mxCell id="ueDurYDFPwys_lPn447s-55" style="edgeStyle=orthogonalEdgeStyle;rounded=0;orthogonalLoop=1;jettySize=auto;html=1;entryX=0.5;entryY=0;entryDx=0;entryDy=0;endArrow=none;startFill=0;dashed=1;dashPattern=12 12;" edge="1" parent="1" source="ueDurYDFPwys_lPn447s-33" target="ueDurYDFPwys_lPn447s-52">
          <mxGeometry relative="1" as="geometry" />
        </mxCell>
        <mxCell id="ueDurYDFPwys_lPn447s-30" style="edgeStyle=orthogonalEdgeStyle;rounded=0;orthogonalLoop=1;jettySize=auto;html=1;exitX=0.5;exitY=0;exitDx=0;exitDy=0;entryX=0.5;entryY=1;entryDx=0;entryDy=0;endArrow=none;startFill=0;dashed=1;dashPattern=8 8;" edge="1" parent="1" source="ueDurYDFPwys_lPn447s-33" target="ueDurYDFPwys_lPn447s-29">
          <mxGeometry relative="1" as="geometry" />
        </mxCell>
        <mxCell id="ueDurYDFPwys_lPn447s-33" value="" style="rounded=0;whiteSpace=wrap;html=1;" vertex="1" parent="1">
          <mxGeometry x="445" y="180" width="10" height="30" as="geometry" />
        </mxCell>
        <mxCell id="ueDurYDFPwys_lPn447s-39" value="" style="rounded=0;whiteSpace=wrap;html=1;" vertex="1" parent="1">
          <mxGeometry x="912.75" y="235" width="10" height="90" as="geometry" />
        </mxCell>
        <mxCell id="ueDurYDFPwys_lPn447s-48" style="edgeStyle=orthogonalEdgeStyle;rounded=0;orthogonalLoop=1;jettySize=auto;html=1;exitX=0;exitY=1;exitDx=0;exitDy=0;" edge="1" parent="1" source="ueDurYDFPwys_lPn447s-33">
          <mxGeometry relative="1" as="geometry">
            <Array as="points">
              <mxPoint x="445" y="215" />
            </Array>
            <mxPoint x="190" y="215" as="targetPoint" />
          </mxGeometry>
        </mxCell>
        <mxCell id="ueDurYDFPwys_lPn447s-49" value="Aparece na tela a adm pag editar" style="edgeLabel;html=1;align=center;verticalAlign=middle;resizable=0;points=[];" connectable="0" vertex="1" parent="ueDurYDFPwys_lPn447s-48">
          <mxGeometry x="0.0986" y="-1" relative="1" as="geometry">
            <mxPoint as="offset" />
          </mxGeometry>
        </mxCell>
        <mxCell id="CSFp8VOE0TgeVbHITCIb-3" value="&lt;span style=&quot;color: rgb(0, 0, 0); font-family: Helvetica; font-size: 11px; font-style: normal; font-variant-ligatures: normal; font-variant-caps: normal; font-weight: 400; letter-spacing: normal; orphans: 2; text-align: center; text-indent: 0px; text-transform: none; widows: 2; word-spacing: 0px; -webkit-text-stroke-width: 0px; white-space: nowrap; background-color: rgb(255, 255, 255); text-decoration-thickness: initial; text-decoration-style: initial; text-decoration-color: initial; float: none; display: inline !important;&quot;&gt;Requere a remoção&amp;nbsp;&lt;/span&gt;&lt;div style=&quot;forced-color-adjust: none; color: rgb(0, 0, 0); font-family: Helvetica; font-size: 11px; font-style: normal; font-variant-ligatures: normal; font-variant-caps: normal; font-weight: 400; letter-spacing: normal; orphans: 2; text-align: center; text-indent: 0px; text-transform: none; widows: 2; word-spacing: 0px; -webkit-text-stroke-width: 0px; white-space: nowrap; text-decoration-thickness: initial; text-decoration-style: initial; text-decoration-color: initial;&quot;&gt;do vídeo&lt;/div&gt;" style="edgeStyle=orthogonalEdgeStyle;rounded=0;orthogonalLoop=1;jettySize=auto;html=1;exitX=1;exitY=0.25;exitDx=0;exitDy=0;entryX=0;entryY=0.25;entryDx=0;entryDy=0;" edge="1" parent="1" source="ueDurYDFPwys_lPn447s-52" target="ueDurYDFPwys_lPn447s-39">
          <mxGeometry relative="1" as="geometry" />
        </mxCell>
        <mxCell id="CSFp8VOE0TgeVbHITCIb-23" style="edgeStyle=orthogonalEdgeStyle;rounded=0;orthogonalLoop=1;jettySize=auto;html=1;exitX=1;exitY=0.75;exitDx=0;exitDy=0;" edge="1" parent="1" source="ueDurYDFPwys_lPn447s-52" target="CSFp8VOE0TgeVbHITCIb-12">
          <mxGeometry relative="1" as="geometry">
            <Array as="points">
              <mxPoint x="455" y="300" />
              <mxPoint x="535" y="300" />
              <mxPoint x="535" y="308" />
            </Array>
          </mxGeometry>
        </mxCell>
        <mxCell id="CSFp8VOE0TgeVbHITCIb-24" value="Chama a adm pag editar&lt;div&gt;sem video&lt;/div&gt;" style="edgeLabel;html=1;align=center;verticalAlign=middle;resizable=0;points=[];" connectable="0" vertex="1" parent="CSFp8VOE0TgeVbHITCIb-23">
          <mxGeometry x="0.1475" y="2" relative="1" as="geometry">
            <mxPoint as="offset" />
          </mxGeometry>
        </mxCell>
        <mxCell id="CSFp8VOE0TgeVbHITCIb-32" style="edgeStyle=orthogonalEdgeStyle;rounded=0;orthogonalLoop=1;jettySize=auto;html=1;exitX=0.5;exitY=1;exitDx=0;exitDy=0;endArrow=none;startFill=0;dashed=1;dashPattern=8 8;" edge="1" parent="1" source="ueDurYDFPwys_lPn447s-52">
          <mxGeometry relative="1" as="geometry">
            <mxPoint x="450" y="350" as="targetPoint" />
          </mxGeometry>
        </mxCell>
        <mxCell id="ueDurYDFPwys_lPn447s-52" value="" style="rounded=0;whiteSpace=wrap;html=1;" vertex="1" parent="1">
          <mxGeometry x="445" y="240" width="10" height="60" as="geometry" />
        </mxCell>
        <mxCell id="CSFp8VOE0TgeVbHITCIb-7" value="&lt;span style=&quot;color: rgb(0, 0, 0); font-family: Helvetica; font-size: 11px; font-style: normal; font-variant-ligatures: normal; font-variant-caps: normal; font-weight: 400; letter-spacing: normal; orphans: 2; text-align: center; text-indent: 0px; text-transform: none; widows: 2; word-spacing: 0px; -webkit-text-stroke-width: 0px; white-space: nowrap; background-color: rgb(255, 255, 255); text-decoration-thickness: initial; text-decoration-style: initial; text-decoration-color: initial; float: none; display: inline !important;&quot;&gt;Retorna a lista atualizada&lt;/span&gt;" style="edgeStyle=orthogonalEdgeStyle;rounded=0;orthogonalLoop=1;jettySize=auto;html=1;exitX=0;exitY=0.25;exitDx=0;exitDy=0;entryX=1;entryY=0.5;entryDx=0;entryDy=0;" edge="1" parent="1" source="ueDurYDFPwys_lPn447s-58" target="ueDurYDFPwys_lPn447s-39">
          <mxGeometry relative="1" as="geometry">
            <Array as="points">
              <mxPoint x="1095" y="280" />
            </Array>
          </mxGeometry>
        </mxCell>
        <mxCell id="ueDurYDFPwys_lPn447s-58" value="" style="rounded=0;whiteSpace=wrap;html=1;" vertex="1" parent="1">
          <mxGeometry x="1095" y="235" width="10" height="185" as="geometry" />
        </mxCell>
        <mxCell id="CSFp8VOE0TgeVbHITCIb-8" value="" style="shape=umlBoundary;whiteSpace=wrap;html=1;" vertex="1" parent="1">
          <mxGeometry x="570" y="50" width="80" height="65" as="geometry" />
        </mxCell>
        <mxCell id="CSFp8VOE0TgeVbHITCIb-17" value="" style="edgeStyle=orthogonalEdgeStyle;rounded=0;orthogonalLoop=1;jettySize=auto;html=1;dashed=1;dashPattern=8 8;endArrow=none;startFill=0;" edge="1" parent="1" source="CSFp8VOE0TgeVbHITCIb-9" target="CSFp8VOE0TgeVbHITCIb-12">
          <mxGeometry relative="1" as="geometry">
            <Array as="points">
              <mxPoint x="620" y="230" />
              <mxPoint x="620" y="230" />
            </Array>
          </mxGeometry>
        </mxCell>
        <mxCell id="CSFp8VOE0TgeVbHITCIb-9" value="Adm Pag editar&lt;div&gt;sem vídeo&lt;/div&gt;" style="text;html=1;align=center;verticalAlign=middle;whiteSpace=wrap;rounded=0;" vertex="1" parent="1">
          <mxGeometry x="570" y="115" width="100" height="30" as="geometry" />
        </mxCell>
        <mxCell id="CSFp8VOE0TgeVbHITCIb-10" value="" style="edgeStyle=orthogonalEdgeStyle;rounded=0;orthogonalLoop=1;jettySize=auto;html=1;exitX=0.5;exitY=0;exitDx=0;exitDy=0;entryX=0.5;entryY=1;entryDx=0;entryDy=0;endArrow=none;startFill=0;dashed=1;dashPattern=8 8;" edge="1" parent="1" source="ueDurYDFPwys_lPn447s-27" target="ueDurYDFPwys_lPn447s-23">
          <mxGeometry relative="1" as="geometry">
            <mxPoint x="1100" y="125.5" as="targetPoint" />
            <mxPoint x="1100" y="155" as="sourcePoint" />
          </mxGeometry>
        </mxCell>
        <mxCell id="ueDurYDFPwys_lPn447s-23" value="Banco_de_dados" style="text;html=1;align=center;verticalAlign=middle;whiteSpace=wrap;rounded=0;" vertex="1" parent="1">
          <mxGeometry x="1050" y="110" width="100" height="30" as="geometry" />
        </mxCell>
        <mxCell id="CSFp8VOE0TgeVbHITCIb-20" style="edgeStyle=orthogonalEdgeStyle;rounded=0;orthogonalLoop=1;jettySize=auto;html=1;exitX=0;exitY=0.5;exitDx=0;exitDy=0;entryX=0.9;entryY=0.65;entryDx=0;entryDy=0;entryPerimeter=0;" edge="1" parent="1" source="ueDurYDFPwys_lPn447s-39" target="ueDurYDFPwys_lPn447s-52">
          <mxGeometry relative="1" as="geometry" />
        </mxCell>
        <mxCell id="CSFp8VOE0TgeVbHITCIb-22" value="Mostra a adm pag editar" style="edgeLabel;html=1;align=center;verticalAlign=middle;resizable=0;points=[];" connectable="0" vertex="1" parent="CSFp8VOE0TgeVbHITCIb-20">
          <mxGeometry x="0.5059" relative="1" as="geometry">
            <mxPoint as="offset" />
          </mxGeometry>
        </mxCell>
        <mxCell id="CSFp8VOE0TgeVbHITCIb-12" value="" style="html=1;points=[[0,0,0,0,5],[0,1,0,0,-5],[1,0,0,0,5],[1,1,0,0,-5]];perimeter=orthogonalPerimeter;outlineConnect=0;targetShapes=umlLifeline;portConstraint=eastwest;newEdgeStyle={&quot;curved&quot;:0,&quot;rounded&quot;:0};" vertex="1" parent="1">
          <mxGeometry x="615" y="290" width="10" height="100" as="geometry" />
        </mxCell>
        <mxCell id="CSFp8VOE0TgeVbHITCIb-26" style="edgeStyle=orthogonalEdgeStyle;rounded=0;orthogonalLoop=1;jettySize=auto;html=1;curved=0;" edge="1" parent="1" source="CSFp8VOE0TgeVbHITCIb-12">
          <mxGeometry relative="1" as="geometry">
            <mxPoint x="185" y="320" as="targetPoint" />
            <Array as="points">
              <mxPoint x="401" y="320" />
              <mxPoint x="401" y="321" />
            </Array>
          </mxGeometry>
        </mxCell>
        <mxCell id="CSFp8VOE0TgeVbHITCIb-27" value="Mostra a adm pag editar sem video" style="edgeLabel;html=1;align=center;verticalAlign=middle;resizable=0;points=[];" connectable="0" vertex="1" parent="CSFp8VOE0TgeVbHITCIb-26">
          <mxGeometry x="-0.0229" y="1" relative="1" as="geometry">
            <mxPoint as="offset" />
          </mxGeometry>
        </mxCell>
        <mxCell id="CSFp8VOE0TgeVbHITCIb-38" style="edgeStyle=orthogonalEdgeStyle;rounded=0;orthogonalLoop=1;jettySize=auto;html=1;curved=0;exitX=0;exitY=0;exitDx=0;exitDy=5;exitPerimeter=0;" edge="1" parent="1" source="CSFp8VOE0TgeVbHITCIb-30">
          <mxGeometry relative="1" as="geometry">
            <mxPoint x="190" y="365" as="targetPoint" />
          </mxGeometry>
        </mxCell>
        <mxCell id="CSFp8VOE0TgeVbHITCIb-39" value="Aparece na tela a adm pag editar" style="edgeLabel;html=1;align=center;verticalAlign=middle;resizable=0;points=[];" connectable="0" vertex="1" parent="CSFp8VOE0TgeVbHITCIb-38">
          <mxGeometry x="-0.092" y="-1" relative="1" as="geometry">
            <mxPoint as="offset" />
          </mxGeometry>
        </mxCell>
        <mxCell id="CSFp8VOE0TgeVbHITCIb-30" value="" style="html=1;points=[[0,0,0,0,5],[0,1,0,0,-5],[1,0,0,0,5],[1,1,0,0,-5]];perimeter=orthogonalPerimeter;outlineConnect=0;targetShapes=umlLifeline;portConstraint=eastwest;newEdgeStyle={&quot;curved&quot;:0,&quot;rounded&quot;:0};" vertex="1" parent="1">
          <mxGeometry x="445" y="360" width="10" height="70" as="geometry" />
        </mxCell>
        <mxCell id="CSFp8VOE0TgeVbHITCIb-34" style="edgeStyle=orthogonalEdgeStyle;rounded=0;orthogonalLoop=1;jettySize=auto;html=1;curved=0;exitX=0;exitY=1;exitDx=0;exitDy=-5;exitPerimeter=0;entryX=1;entryY=0;entryDx=0;entryDy=5;entryPerimeter=0;" edge="1" parent="1" source="CSFp8VOE0TgeVbHITCIb-12" target="CSFp8VOE0TgeVbHITCIb-30">
          <mxGeometry relative="1" as="geometry">
            <Array as="points">
              <mxPoint x="615" y="365" />
            </Array>
          </mxGeometry>
        </mxCell>
        <mxCell id="CSFp8VOE0TgeVbHITCIb-35" value="Mostra a adm pag editar" style="edgeLabel;html=1;align=center;verticalAlign=middle;resizable=0;points=[];" connectable="0" vertex="1" parent="CSFp8VOE0TgeVbHITCIb-34">
          <mxGeometry x="0.0556" y="-1" relative="1" as="geometry">
            <mxPoint as="offset" />
          </mxGeometry>
        </mxCell>
        <mxCell id="CSFp8VOE0TgeVbHITCIb-36" style="edgeStyle=orthogonalEdgeStyle;rounded=0;orthogonalLoop=1;jettySize=auto;html=1;exitX=1;exitY=0.75;exitDx=0;exitDy=0;entryX=-0.1;entryY=0.429;entryDx=0;entryDy=0;entryPerimeter=0;" edge="1" parent="1" source="ueDurYDFPwys_lPn447s-6" target="CSFp8VOE0TgeVbHITCIb-30">
          <mxGeometry relative="1" as="geometry">
            <Array as="points">
              <mxPoint x="190" y="390" />
            </Array>
          </mxGeometry>
        </mxCell>
        <mxCell id="CSFp8VOE0TgeVbHITCIb-37" value="Altera o texto da descrição e&lt;div&gt;clica em &#39;salvar&#39;&lt;/div&gt;" style="edgeLabel;html=1;align=center;verticalAlign=middle;resizable=0;points=[];" connectable="0" vertex="1" parent="CSFp8VOE0TgeVbHITCIb-36">
          <mxGeometry x="-0.0642" y="-1" relative="1" as="geometry">
            <mxPoint as="offset" />
          </mxGeometry>
        </mxCell>
        <mxCell id="CSFp8VOE0TgeVbHITCIb-40" value="" style="html=1;points=[[0,0,0,0,5],[0,1,0,0,-5],[1,0,0,0,5],[1,1,0,0,-5]];perimeter=orthogonalPerimeter;outlineConnect=0;targetShapes=umlLifeline;portConstraint=eastwest;newEdgeStyle={&quot;curved&quot;:0,&quot;rounded&quot;:0};" vertex="1" parent="1">
          <mxGeometry x="912.75" y="350" width="10" height="80" as="geometry" />
        </mxCell>
        <mxCell id="CSFp8VOE0TgeVbHITCIb-43" style="edgeStyle=orthogonalEdgeStyle;rounded=0;orthogonalLoop=1;jettySize=auto;html=1;exitX=0.5;exitY=1;exitDx=0;exitDy=0;entryX=0.525;entryY=-0.012;entryDx=0;entryDy=0;entryPerimeter=0;endArrow=none;startFill=0;dashed=1;dashPattern=8 8;" edge="1" parent="1" source="ueDurYDFPwys_lPn447s-39" target="CSFp8VOE0TgeVbHITCIb-40">
          <mxGeometry relative="1" as="geometry" />
        </mxCell>
        <mxCell id="CSFp8VOE0TgeVbHITCIb-48" style="edgeStyle=orthogonalEdgeStyle;rounded=0;orthogonalLoop=1;jettySize=auto;html=1;" edge="1" parent="1" target="CSFp8VOE0TgeVbHITCIb-40">
          <mxGeometry relative="1" as="geometry">
            <mxPoint x="455" y="400" as="sourcePoint" />
            <mxPoint x="709" y="400" as="targetPoint" />
            <Array as="points">
              <mxPoint x="455" y="401" />
              <mxPoint x="614" y="401" />
              <mxPoint x="614" y="400" />
            </Array>
          </mxGeometry>
        </mxCell>
        <mxCell id="CSFp8VOE0TgeVbHITCIb-52" value="Requere o salvamento da descrição" style="edgeLabel;html=1;align=center;verticalAlign=middle;resizable=0;points=[];" connectable="0" vertex="1" parent="CSFp8VOE0TgeVbHITCIb-48">
          <mxGeometry x="-0.0743" y="-2" relative="1" as="geometry">
            <mxPoint as="offset" />
          </mxGeometry>
        </mxCell>
        <mxCell id="CSFp8VOE0TgeVbHITCIb-50" value="&lt;span style=&quot;forced-color-adjust: none; color: rgb(0, 0, 0); font-family: Helvetica; font-size: 11px; font-style: normal; font-variant-ligatures: normal; font-variant-caps: normal; font-weight: 400; letter-spacing: normal; orphans: 2; text-align: center; text-indent: 0px; text-transform: none; widows: 2; word-spacing: 0px; -webkit-text-stroke-width: 0px; white-space: nowrap; background-color: rgb(255, 255, 255); text-decoration-thickness: initial; text-decoration-style: initial; text-decoration-color: initial; float: none; display: inline !important;&quot;&gt;Remove o tutorial do&amp;nbsp;&lt;/span&gt;&lt;div style=&quot;forced-color-adjust: none; color: light-dark(rgb(0, 0, 0), rgb(237, 237, 237)); font-family: Helvetica; font-size: 11px; font-style: normal; font-variant-ligatures: normal; font-variant-caps: normal; font-weight: 400; letter-spacing: normal; orphans: 2; text-align: center; text-indent: 0px; text-transform: none; widows: 2; word-spacing: 0px; -webkit-text-stroke-width: 0px; white-space: nowrap; text-decoration-thickness: initial; text-decoration-style: initial; text-decoration-color: initial; background-color: rgb(251, 251, 251);&quot;&gt;banco de dados&lt;/div&gt;" style="edgeStyle=orthogonalEdgeStyle;rounded=0;orthogonalLoop=1;jettySize=auto;html=1;exitX=1;exitY=0.25;exitDx=0;exitDy=0;entryX=-0.1;entryY=0.124;entryDx=0;entryDy=0;entryPerimeter=0;" edge="1" parent="1" source="ueDurYDFPwys_lPn447s-39" target="ueDurYDFPwys_lPn447s-58">
          <mxGeometry relative="1" as="geometry" />
        </mxCell>
        <mxCell id="CSFp8VOE0TgeVbHITCIb-54" style="edgeStyle=orthogonalEdgeStyle;rounded=0;orthogonalLoop=1;jettySize=auto;html=1;curved=0;exitX=1;exitY=0;exitDx=0;exitDy=5;exitPerimeter=0;entryX=0.3;entryY=0.903;entryDx=0;entryDy=0;entryPerimeter=0;" edge="1" parent="1" source="CSFp8VOE0TgeVbHITCIb-40" target="ueDurYDFPwys_lPn447s-58">
          <mxGeometry relative="1" as="geometry">
            <Array as="points">
              <mxPoint x="923" y="402" />
            </Array>
          </mxGeometry>
        </mxCell>
        <mxCell id="CSFp8VOE0TgeVbHITCIb-55" value="Salva no banco de dados" style="edgeLabel;html=1;align=center;verticalAlign=middle;resizable=0;points=[];" connectable="0" vertex="1" parent="CSFp8VOE0TgeVbHITCIb-54">
          <mxGeometry relative="1" as="geometry">
            <mxPoint as="offset" />
          </mxGeometry>
        </mxCell>
        <mxCell id="CSFp8VOE0TgeVbHITCIb-56" style="edgeStyle=orthogonalEdgeStyle;rounded=0;orthogonalLoop=1;jettySize=auto;html=1;exitX=0;exitY=1;exitDx=0;exitDy=0;entryX=1;entryY=1;entryDx=0;entryDy=-5;entryPerimeter=0;" edge="1" parent="1" source="ueDurYDFPwys_lPn447s-58" target="CSFp8VOE0TgeVbHITCIb-40">
          <mxGeometry relative="1" as="geometry">
            <Array as="points">
              <mxPoint x="1095" y="425" />
            </Array>
          </mxGeometry>
        </mxCell>
        <mxCell id="CSFp8VOE0TgeVbHITCIb-57" value="Retorna a descrição salva" style="edgeLabel;html=1;align=center;verticalAlign=middle;resizable=0;points=[];" connectable="0" vertex="1" parent="CSFp8VOE0TgeVbHITCIb-56">
          <mxGeometry x="0.1848" y="-1" relative="1" as="geometry">
            <mxPoint x="25" as="offset" />
          </mxGeometry>
        </mxCell>
        <mxCell id="CSFp8VOE0TgeVbHITCIb-58" value="" style="shape=umlBoundary;whiteSpace=wrap;html=1;" vertex="1" parent="1">
          <mxGeometry x="710" y="50" width="90" height="70" as="geometry" />
        </mxCell>
        <mxCell id="CSFp8VOE0TgeVbHITCIb-62" style="edgeStyle=orthogonalEdgeStyle;rounded=0;orthogonalLoop=1;jettySize=auto;html=1;endArrow=none;startFill=0;dashed=1;dashPattern=8 8;" edge="1" parent="1" source="CSFp8VOE0TgeVbHITCIb-59">
          <mxGeometry relative="1" as="geometry">
            <mxPoint x="760" y="410" as="targetPoint" />
          </mxGeometry>
        </mxCell>
        <mxCell id="CSFp8VOE0TgeVbHITCIb-59" value="Adm Pag editar&lt;div&gt;novo vídeo&lt;/div&gt;" style="text;html=1;align=center;verticalAlign=middle;whiteSpace=wrap;rounded=0;" vertex="1" parent="1">
          <mxGeometry x="710" y="120" width="100" height="30" as="geometry" />
        </mxCell>
        <mxCell id="CSFp8VOE0TgeVbHITCIb-60" value="" style="html=1;points=[[0,0,0,0,5],[0,1,0,0,-5],[1,0,0,0,5],[1,1,0,0,-5]];perimeter=orthogonalPerimeter;outlineConnect=0;targetShapes=umlLifeline;portConstraint=eastwest;newEdgeStyle={&quot;curved&quot;:0,&quot;rounded&quot;:0};" vertex="1" parent="1">
          <mxGeometry x="755" y="410" width="10" height="30" as="geometry" />
        </mxCell>
        <mxCell id="CSFp8VOE0TgeVbHITCIb-63" style="edgeStyle=orthogonalEdgeStyle;rounded=0;orthogonalLoop=1;jettySize=auto;html=1;curved=0;exitX=0;exitY=1;exitDx=0;exitDy=-5;exitPerimeter=0;entryX=1;entryY=0;entryDx=0;entryDy=5;entryPerimeter=0;" edge="1" parent="1" source="CSFp8VOE0TgeVbHITCIb-40" target="CSFp8VOE0TgeVbHITCIb-60">
          <mxGeometry relative="1" as="geometry" />
        </mxCell>
        <mxCell id="CSFp8VOE0TgeVbHITCIb-64" value="Mostra a adm pag&lt;div&gt;&amp;nbsp;novo video&lt;/div&gt;" style="edgeLabel;html=1;align=center;verticalAlign=middle;resizable=0;points=[];" connectable="0" vertex="1" parent="CSFp8VOE0TgeVbHITCIb-63">
          <mxGeometry x="-0.0384" y="4" relative="1" as="geometry">
            <mxPoint as="offset" />
          </mxGeometry>
        </mxCell>
        <mxCell id="CSFp8VOE0TgeVbHITCIb-65" value="" style="html=1;points=[[0,0,0,0,5],[0,1,0,0,-5],[1,0,0,0,5],[1,1,0,0,-5]];perimeter=orthogonalPerimeter;outlineConnect=0;targetShapes=umlLifeline;portConstraint=eastwest;newEdgeStyle={&quot;curved&quot;:0,&quot;rounded&quot;:0};" vertex="1" parent="1">
          <mxGeometry x="305" y="420" width="10" height="40" as="geometry" />
        </mxCell>
        <mxCell id="CSFp8VOE0TgeVbHITCIb-67" style="edgeStyle=orthogonalEdgeStyle;rounded=0;orthogonalLoop=1;jettySize=auto;html=1;entryX=0.5;entryY=-0.025;entryDx=0;entryDy=0;entryPerimeter=0;endArrow=none;startFill=0;dashed=1;dashPattern=8 8;" edge="1" parent="1" source="ueDurYDFPwys_lPn447s-12" target="CSFp8VOE0TgeVbHITCIb-65">
          <mxGeometry relative="1" as="geometry" />
        </mxCell>
        <mxCell id="CSFp8VOE0TgeVbHITCIb-68" style="edgeStyle=orthogonalEdgeStyle;rounded=0;orthogonalLoop=1;jettySize=auto;html=1;curved=0;exitX=0;exitY=1;exitDx=0;exitDy=-5;exitPerimeter=0;entryX=0.9;entryY=0.375;entryDx=0;entryDy=0;entryPerimeter=0;" edge="1" parent="1" source="CSFp8VOE0TgeVbHITCIb-60" target="CSFp8VOE0TgeVbHITCIb-65">
          <mxGeometry relative="1" as="geometry" />
        </mxCell>
        <mxCell id="CSFp8VOE0TgeVbHITCIb-69" value="Mostra a adm pag inicial" style="edgeLabel;html=1;align=center;verticalAlign=middle;resizable=0;points=[];" connectable="0" vertex="1" parent="CSFp8VOE0TgeVbHITCIb-68">
          <mxGeometry x="0.0068" y="1" relative="1" as="geometry">
            <mxPoint as="offset" />
          </mxGeometry>
        </mxCell>
      </root>
    </mxGraphModel>
  </diagram>
</mxfile>
